<?xml version="1.0" encoding="UTF-8"?>
<svg width="600" height="500" stroke-linecap="round" stroke-width="2" version="1.1" xmlns="http://www.w3.org/2000/svg">
 <defs>
  <marker id="a" overflow="visible" markerHeight="1" markerWidth="1" orient="auto" preserveAspectRatio="xMidYMid" viewBox="0 0 1 1">
   <path transform="scale(.7)" d="m-2-4 11 4-11 4c2-2.33 2-5.66 0-8z" fill-rule="evenodd"/>
  </marker>
  <marker id="b" overflow="visible" markerHeight="1" markerWidth="1" orient="auto" preserveAspectRatio="xMidYMid" viewBox="0 0 1 1">
   <path transform="scale(.7)" d="m-2-4 11 4-11 4c2-2.33 2-5.66 0-8z" fill="#808080" fill-rule="evenodd"/>
  </marker>
  <marker id="c" overflow="visible" markerHeight="1" markerWidth="1" orient="auto" preserveAspectRatio="xMidYMid" viewBox="0 0 1 1">
   <path transform="scale(.7)" d="m-2-4 11 4-11 4c2-2.33 2-5.66 0-8z" fill="#cccccc" fill-rule="evenodd"/>
  </marker>
 </defs>
 <path d="m342.04 217.19c-56.052 56.052-56.052 146.93 0 202.98 56.056 56.052 146.93 56.052 202.99 0 56.052-56.052 56.052-146.93 0-202.98-56.052-56.056-146.93-56.056-202.99 0" fill="#ff2300"/>
 <path d="m258.72 218.31c55.698 55.698 55.698 146 0 201.7-55.698 55.698-146 55.698-201.7 0-55.698-55.698-55.698-146 0-201.7 55.698-55.701 146-55.701 201.7 0" fill="#00a8d4"/>
 <path d="m400.65 56.77c56.052 56.052 56.052 146.93 0 202.98-56.052 56.052-146.93 56.052-202.98 0-56.052-56.052-56.052-146.93 0-202.98 56.052-56.056 146.93-56.056 202.98 0" fill="#7a2bd4"/>
 <g stroke="#000" stroke-dasharray="10, 8">
  <path d="m299.58 336.68c-5.8281 57.59-57.235 109-114.83 114.83-57.585 5.8326-99.543-36.13-93.715-93.715 5.8281-57.59 57.24-109 114.83-114.83 57.585-5.8281 99.548 36.13 93.715 93.715" fill="#0078a8"/>
  <path d="m283.31 285.56c22.586 17.639 22.586 46.239 0 63.879-22.586 17.644-59.203 17.644-81.789 0-22.586-17.639-22.586-46.239 0-63.879 22.586-17.639 59.203-17.639 81.789 0" fill="#0051ff"/>
  <path d="m394.79 242.52c57.59 5.8281 109 57.235 114.83 114.83 5.8281 57.585-36.13 99.543-93.715 93.715-57.59-5.8281-109-57.235-114.83-114.83-5.8281-57.585 36.13-99.543 93.715-93.715" fill="#ab1400"/>
 </g>
 <g fill="none" stroke="#000">
  <path d="m342.04 217.19c-56.052 56.052-56.052 146.93 0 202.98 56.056 56.052 146.93 56.052 202.99 0 56.052-56.052 56.052-146.93 0-202.98-56.052-56.056-146.93-56.056-202.99 0"/>
  <path d="m400.65 56.77c56.052 56.052 56.052 146.93 0 202.98-56.052 56.052-146.93 56.052-202.98 0-56.052-56.052-56.052-146.93 0-202.98 56.052-56.056 146.93-56.056 202.98 0"/>
  <path d="m258.72 218.31c55.698 55.698 55.698 146 0 201.7-55.698 55.698-146 55.698-201.7 0-55.698-55.698-55.698-146 0-201.7 55.698-55.701 146-55.701 201.7 0"/>
 </g>
 <g stroke="#000">
  <path d="m161.27 172.06c2.4731 2.4731 2.4731 6.4841 0 8.9571-2.4731 2.4731-6.4796 2.4731-8.9527 0s-2.4731-6.4841 0-8.9571c2.4731-2.4731 6.4796-2.4731 8.9527 0" fill="#ccc"/>
  <path d="m190.04 241.53c2.4731 2.4731 2.4731 6.4841 0 8.9571-2.4731 2.4731-6.4796 2.4731-8.9527 0s-2.4731-6.4841 0-8.9571c2.4731-2.4731 6.4796-2.4731 8.9527 0" fill="#ccc"/>
  <path d="m455.77 120.8-53.474 80.729" marker-end="url(#a)"/>
  <path d="m151.15 45.124 63.336 202.25" marker-end="url(#a)"/>
 </g>
 <g stroke="#ccc" stroke-dasharray="6, 4">
  <path d="m299.26 194.18 0.21717 85.937" marker-end="url(#c)"/>
  <path d="m98.582 304.67 67.881-46.076" marker-end="url(#c)"/>
  <path d="m406.32 322.43-23.29-21.356" marker-end="url(#c)"/>
 </g>
 <path d="m81.926 137.23 53.693 28.189" marker-end="url(#b)" stroke="#808080" stroke-dasharray="6, 4"/>
 <path d="m285.09 459.39-6.3733-37.106" marker-end="url(#b)" stroke="#808080" stroke-dasharray="6, 4"/>
 <g fill="#ccc" stroke="#000">
  <path d="m303.95 297.61c2.4731 2.4731 2.4731 6.4841 0 8.9571-2.4731 2.4731-6.4796 2.4731-8.9527 0s-2.4731-6.4841 0-8.9571c2.4731-2.4731 6.4796-2.4731 8.9527 0"/>
  <path d="m370.38 280.89c2.4731 2.4731 2.4731 6.4841 0 8.9571-2.4731 2.4731-6.4796 2.4731-8.9527 0s-2.4731-6.4841 0-8.9571c2.4731-2.4731 6.4796-2.4731 8.9527 0"/>
  <path d="m279.47 396.1c2.4731 2.4731 2.4731 6.4841 0 8.9571-2.4731 2.4731-6.4796 2.4731-8.9527 0s-2.4731-6.4841 0-8.9571c2.4731-2.4731 6.4796-2.4731 8.9527 0"/>
 </g>
 <g font-family="'Liberation Sans'" font-size="15" font-weight="bold">
  <switch transform="translate(299 183)" fill="#cccccc" text-anchor="middle">
   <text systemLanguage="de"><tspan>Tit-for-Tat</tspan></text>
   <text systemLanguage="en"><tspan>tit-for-tat</tspan></text>
   <text><tspan>tit-for-tat</tspan></text>
  </switch>
  <switch transform="translate(148 50)" text-anchor="end">
   <text systemLanguage="de"><tspan>nd großherzige</tspan><tspan x="0" y="15">Strategien</tspan></text>
   <text systemLanguage="en"><tspan>ZD generous</tspan><tspan x="0" y="15">strategies</tspan></text>
   <text><tspan>ZD generous</tspan><tspan x="0" y="15">strategies</tspan></text>
  </switch>
  <switch transform="translate(460 125)">
   <text systemLanguage="de"><tspan>nd Erpessungs-</tspan><tspan x="0" y="15">Strategien</tspan></text>
   <text systemLanguage="en"><tspan>ZD extortion</tspan><tspan x="0" y="15">strategies</tspan></text>
   <text><tspan>ZD extortion</tspan><tspan x="0" y="15">strategies</tspan></text>
  </switch>
  <g text-anchor="middle">
   <switch transform="translate(296 102)">
    <text systemLanguage="de"><tspan>nicht-determinierende (nd)</tspan><tspan x="0" y="15">Strategie</tspan></text>
    <text systemLanguage="en"><tspan>zero determinant (ZD)</tspan><tspan x="0" y="15">strategies</tspan></text>
    <text><tspan>zero determinant (ZD)</tspan><tspan x="0" y="15">strategies</tspan></text>
   </switch>
   <switch transform="translate(111 239)">
    <text systemLanguage="de"><tspan>kooperierende</tspan><tspan x="0" y="15">Strategie</tspan></text>
    <text systemLanguage="en"><tspan>cooperating</tspan><tspan x="0" y="15">strategies</tspan></text>
    <text><tspan>cooperating</tspan><tspan x="0" y="15">strategies</tspan></text>
   </switch>
   <switch transform="translate(485 235)">
    <text systemLanguage="de"><tspan>defektierende</tspan><tspan x="0" y="15">Strategie</tspan></text>
    <text systemLanguage="en"><tspan>defecting</tspan><tspan x="0" y="15">strategies</tspan></text>
    <text><tspan>defecting</tspan><tspan x="0" y="15">strategies</tspan></text>
   </switch>
   <switch transform="translate(420 391)">
    <text systemLanguage="de"><tspan>robust bei</tspan><tspan x="0" y="15">starker Selektion</tspan></text>
    <text systemLanguage="en"><tspan>robust under</tspan><tspan x="0" y="15">strong selection</tspan></text>
    <text><tspan>robust under</tspan><tspan x="0" y="15">strong selection</tspan></text>
   </switch>
   <switch transform="translate(239 321)">
    <text systemLanguage="de"><tspan>immer</tspan><tspan x="0" y="15">robust</tspan></text>
    <text systemLanguage="en"><tspan>always</tspan><tspan x="0" y="15">robust</tspan></text>
    <text><tspan>always</tspan><tspan x="0" y="15">robust</tspan></text>
   </switch>
   <switch transform="translate(80 117)" fill="#808080">
    <text systemLanguage="de"><tspan>immer</tspan><tspan x="0" y="15">kooperierend</tspan></text>
    <text systemLanguage="en"><tspan>always</tspan><tspan x="0" y="15">cooperate</tspan></text>
    <text><tspan>always</tspan><tspan x="0" y="15">cooperate</tspan></text>
   </switch>
   <switch transform="translate(410 337)" fill="#cccccc">
    <text systemLanguage="de"><tspan>immer</tspan><tspan x="0" y="15">defektieren</tspan></text>
    <text systemLanguage="en"><tspan>always</tspan><tspan x="0" y="15">defect</tspan></text>
    <text><tspan>always</tspan><tspan x="0" y="15">defect</tspan></text>
   </switch>
   <switch transform="translate(285 476)" fill="#808080">
    <text systemLanguage="de"><tspan>Gewinn-Halten-</tspan><tspan x="0" y="15">Verlust-Umschlagspunkt</tspan></text>
    <text systemLanguage="en"><tspan>win-stay-</tspan><tspan x="0" y="15">lose-shift</tspan></text>
    <text><tspan>win-stay</tspan><tspan x="0" y="15">lose-shift</tspan></text>
   </switch>
  </g>
  <switch transform="translate(98 315)" fill="#cccccc" text-anchor="end">
   <text systemLanguage="de"><tspan>groß-</tspan><tspan x="-5" y="15">herziges</tspan><tspan x="-10" y="30">Tit-for-Tat</tspan></text>
   <text systemLanguage="en"><tspan>generous</tspan><tspan x="-5" y="15">tit-for-tat</tspan></text>
   <text><tspan>generous</tspan><tspan x="-5" y="15">tit-for-tat</tspan></text>
  </switch>
  <switch transform="translate(183 385)" text-anchor="middle">
   <text systemLanguage="de"><tspan>robust bei</tspan><tspan x="0" y="15">starker Selektion</tspan><tspan x="0" y="30">(gut)</tspan></text>
   <text systemLanguage="en"><tspan>robust under</tspan><tspan x="0" y="15">strong selection</tspan><tspan x="0" y="30">(good)</tspan></text>
   <text><tspan>robust under</tspan><tspan x="0" y="15">strong selection</tspan><tspan x="0" y="30">(good)</tspan></text>
  </switch>
 </g>
</svg>
